<?xml version="1.0" encoding="utf-8"?>
<!DOCTYPE svg PUBLIC "-//W3C//DTD SVG 1.0//EN" "http://www.w3.org/TR/2001/REC-SVG-20010904/DTD/svg10.dtd">
<svg version="1.0" xmlns="http://www.w3.org/2000/svg" width="500px" height="500px" viewBox="0 0 500 500" preserveAspectRatio="xMidYMid meet">
 <g fill="#ffffff">
  <path d="M249 317.3 c-18 -3.2 -23.2 -25 -8.8 -36.6 6.2 -5 18.3 -5.1 24.3 -0.3 2.5 2 2.7 2.6 1.7 3.9 -1.2 1.4 -1.8 1.3 -5.5 -0.9 -2.3 -1.3 -5.7 -2.4 -7.5 -2.4 -4.3 0 -11.2 3.4 -13.6 6.7 -2.1 2.8 -3.2 10.6 -2.2 14.6 1 4 7.3 9.7 11 9.9 7.2 0.4 14.6 -1.3 14.6 -3.3 0 -1.4 2.6 -1.1 3.9 0.4 1.1 1.5 -1.3 4.4 -5.4 6.5 -2.6 1.3 -9.3 2.1 -12.5 1.5z"/>
  <path d="M82.5 315.8 c-0.2 -0.7 -3 -9.2 -6.1 -18.7 -3.1 -9.6 -5.9 -18.1 -6.1 -18.9 -0.4 -1 0.2 -1.3 2.2 -1 2.6 0.3 3 1.1 7.5 14.8 2.6 8 5.2 14.5 5.6 14.5 0.5 0 3.1 -6.6 5.8 -14.7 5.4 -16.1 7.1 -18.1 9.5 -11 0.7 2 1.6 4.6 2.1 5.7 0.5 1.1 2.1 5.6 3.5 9.9 3.2 9.9 4.2 11.7 4.9 9.6 0.2 -0.8 2.3 -7.3 4.6 -14.5 2.4 -7.1 4.6 -13.4 5 -13.8 0.4 -0.5 1.7 -0.7 2.8 -0.5 2 0.3 1.9 0.8 -2.4 13.8 -2.4 7.4 -4.9 15.1 -5.5 17 -2.5 8.2 -3 9 -6 9 -2.4 0 -2.9 -0.4 -2.9 -2.4 0 -1.4 -0.4 -2.8 -1 -3.1 -0.5 -0.3 -1 -1.7 -1 -3 0 -1.3 -0.4 -2.7 -1 -3 -0.5 -0.3 -1 -1.7 -1 -3 0 -1.3 -0.4 -2.6 -0.8 -2.9 -0.4 -0.3 -1.4 -2.8 -2.2 -5.5 -0.7 -2.8 -1.7 -5.1 -2.1 -5.1 -0.4 0 -2.8 6.3 -5.4 14 -4.3 12.9 -4.9 14 -7.1 14 -1.4 0 -2.7 -0.6 -2.9 -1.2z"/>
  <path d="M137 301.5 l0 -15.5 11.5 0 11.5 0 0 2.5 c0 2.5 -0.1 2.5 -9 2.5 l-9 0 0 4 0 4 7.5 0 c7.3 0 7.5 0.1 7.5 2.5 0 2.4 -0.2 2.5 -7.5 2.5 l-7.5 0 0 4 0 4 10 0 10 0 0 2.5 0 2.5 -12.5 0 -12.5 0 0 -15.5z"/>
  <path d="M175 301.4 l0 -15.6 10 0.4 c8.1 0.3 10.5 0.8 12.7 2.4 3.3 2.5 4.1 6.6 1.9 9.9 -1.4 2.1 -1.3 2.4 0.9 4.1 3.5 2.6 3.4 8.2 -0.1 11.8 -2.6 2.5 -3.1 2.6 -14 2.6 l-11.4 0 0 -15.6z m22.6 8.1 c1.2 -4.9 0.2 -5.5 -9.1 -5.5 l-8.5 0 0 4 0 4 8.5 0 c8.2 0 8.5 -0.1 9.1 -2.5z m-2.2 -12.7 c0.8 -1.3 0.8 -2.3 0 -3.5 -0.9 -1.4 -2.8 -1.9 -8.3 -2.1 l-7.1 -0.3 0 4.1 0 4.1 7.1 -0.3 c5.5 -0.2 7.4 -0.7 8.3 -2z"/>
  <path d="M281 301.4 l0 -15.6 11.3 0.4 c12.3 0.4 16 1.8 17.1 6.3 0.8 3.3 -1.7 9.1 -4.3 10 -2.6 0.8 -2.6 2.1 -0.1 6.3 1.2 1.9 2.8 3.2 4 3.2 1.5 0 2 0.7 2 2.5 0 2.1 -0.5 2.5 -2.8 2.5 -3.3 0 -5.4 -2 -8.5 -8.1 -2.2 -4.3 -2.3 -4.4 -7.2 -4.4 l-5 0 -0.3 6.3 c-0.3 6.1 -0.3 6.2 -3.2 6.2 l-3 0 0 -15.6z m23 -4.4 c0.8 -1.4 0.8 -2.6 0 -4 -0.9 -1.7 -2.1 -2 -9 -2 l-8 0 0 4 0 4 8 0 c6.9 0 8.1 -0.3 9 -2z"/>
  <path d="M322 316.5 c0 -0.2 2.2 -5 4.8 -10.7 10.1 -21.3 9.2 -19.9 11.9 -19.6 2.1 0.3 3.7 2.6 9.9 14.7 4.1 7.9 7.4 14.7 7.4 15.2 0 0.5 -1.1 0.9 -2.4 0.9 -1.7 0 -2.8 -0.9 -3.8 -3 -1.2 -2.8 -1.6 -3 -7.1 -3 -5.4 0 -13.9 2.8 -15.3 5.1 -0.5 0.9 -5.4 1.3 -5.4 0.4z m17.9 -9.7 c2.8 -0.6 5.1 -1.5 5.1 -2 0 -1.4 -5.3 -10.8 -6.2 -10.8 -0.7 0 -6.8 11.8 -6.8 13.2 0 1.1 2 1 7.9 -0.4z"/>
  <path d="M369 301.5 l0 -15.5 11 0 11 0 0 2.5 c0 2.5 -0.1 2.5 -8.5 2.5 l-8.5 0 0 4 0 4 7 0 c6.8 0 7 0.1 7 2.5 0 2.4 -0.2 2.5 -7 2.5 l-7 0 0 6.5 c0 6.3 -0.1 6.5 -2.5 6.5 l-2.5 0 0 -15.5z"/>
  <path d="M412.8 304.3 l-0.3 -12.8 -5.7 -0.3 c-5.4 -0.3 -5.8 -0.5 -5.8 -2.7 l0 -2.5 14 0 14 0 0 2.5 c0 2.4 -0.3 2.5 -5.5 2.5 l-5.5 0 0 13 0 13 -2.5 0 -2.4 0 -0.3 -12.7z"/>
  <path d="M220.5 256.5 c-4.1 -1.9 -6.9 -4.5 -9.4 -8.6 -2.9 -4.7 -2.9 -15 0 -19.8 3.2 -5.2 7.5 -8.6 11.9 -9.3 1.3 -0.1 2.5 -0.8 2.7 -1.5 0.3 -0.9 -1.9 -1.2 -8.6 -0.9 l-9.1 0.2 0 -19.3 0 -19.3 13 0 c13.8 0 16.7 0.7 21.8 5.4 2.9 2.6 5.2 6.8 5.2 9.5 0 3.7 1.7 3.1 3.1 -1.2 2.6 -8.2 11.1 -14.7 19 -14.7 10.8 0 19.9 9.3 19.9 20.2 -0.1 8.2 -6.2 16.7 -13.4 18.6 -5.1 1.4 -2 2.7 6.2 2.7 l8.2 0 0 19.8 0 19.7 -10.6 0 c-12.9 0 -18.3 -1.3 -22.8 -5.4 -3.6 -3.2 -7.6 -9.6 -7.6 -12.1 0 -0.8 -0.4 -1.5 -1 -1.5 -0.5 0 -1 1.1 -1 2.5 0 2.9 -3.3 9 -6.3 11.7 -5.4 4.7 -15 6.2 -21.2 3.3z m29.5 -21 c0 -2.4 3.9 -8.8 7.3 -11.8 1.7 -1.6 5 -3.3 7.4 -4 2.4 -0.6 4.3 -1.4 4.3 -1.7 0 -0.3 -2.2 -1.3 -5 -2.3 -5.7 -2 -10.3 -6.9 -13.1 -13.8 -1.7 -4.5 -2.1 -4.3 -3.4 1.6 -1 4.3 -8.5 11.2 -13.2 12.1 -2.1 0.4 -4.2 0.9 -4.7 1.2 -1.2 0.7 1.5 2.2 4 2.2 5.2 0 14.4 10.2 14.4 16 0 1.1 0.5 2 1 2 0.6 0 1 -0.7 1 -1.5z"/>
 </g>
</svg>